<svg width="659" height="800" viewBox="0 0 659 800" fill="none" xmlns="http://www.w3.org/2000/svg">
<path d="M659.007 651.912C659.007 605.542 637.692 564.178 604.335 537.033L339.572 330.593C335.186 327.237 339.661 320.436 344.518 323.144L447.915 381.055C494.785 407.316 554.021 392.125 582.431 346.52C612.343 298.414 596.533 235.057 547.396 206.705L395.628 119C390.829 116.204 394.362 108.902 399.573 110.934L469.289 138.844C469.466 138.903 471.085 139.491 471.733 139.727C479.152 142.318 487.072 143.731 495.374 143.731C533.206 143.731 564.237 113.819 566.916 78.2542C570.39 32.2084 535.149 0 493.107 0H170.817C129.452 0 94.6822 33.8277 95.2416 75.104C95.5066 97.0375 105.34 116.616 120.737 130.041C132.337 140.139 171.405 171.405 189.983 186.244C193.31 188.893 191.425 194.193 187.186 194.193H122.681C54.8485 194.605 0 249.718 0 317.609C0 351.938 14.0139 382.998 36.654 405.344L410.084 760.255C436.522 784.897 471.969 800 510.978 800C592.765 800 659.007 733.669 659.007 651.912Z" fill="#FF5010"/>
</svg>
